<?xml version="1.0" encoding="utf-8"?>
<!DOCTYPE svg PUBLIC "-//W3C//DTD SVG 1.1//EN" "http://www.w3.org/Graphics/SVG/1.1/DTD/svg11.dtd">
<svg version="1.1" id="Layer_1" xmlns="http://www.w3.org/2000/svg" xmlns:xlink="http://www.w3.org/1999/xlink"
	 width="1024px" height="1024px" viewBox="0 0 1024 1024" enable-background="new 0 0 1024 1024" xml:space="preserve">
<g>
	<polygon fill="#FFFFFF" stroke="#000000" stroke-miterlimit="10" points="222.42,95.88 135.64,59.56 60.8,116.55 72.73,209.85 
		159.5,246.18 234.35,189.19 	"/>
	<line fill="none" stroke="#000000" stroke-miterlimit="10" x1="62.04" y1="116.25" x2="144.44" y2="150.75"/>
	<line fill="none" stroke="#000000" stroke-miterlimit="10" x1="160.19" y1="245.61" x2="144.44" y2="150.75"/>
	<line fill="none" stroke="#000000" stroke-miterlimit="10" x1="223.57" y1="97.22" x2="144.44" y2="150.75"/>
	<line fill="none" stroke="#000000" stroke-width="0.25" stroke-miterlimit="10" x1="74.33" y1="208.81" x2="144.44" y2="150.75"/>
	<line fill="none" stroke="#000000" stroke-width="0.25" stroke-miterlimit="10" x1="73.1" y1="209.84" x2="143.21" y2="151.78"/>
	<line fill="none" stroke="#000000" stroke-width="0.25" stroke-miterlimit="10" x1="79.74" y1="213.09" x2="145.54" y2="158.6"/>
	<line fill="none" stroke="#000000" stroke-width="0.25" stroke-miterlimit="10" x1="86.5" y1="216.04" x2="144.94" y2="167.65"/>
	<line fill="none" stroke="#000000" stroke-width="0.25" stroke-miterlimit="10" x1="93.48" y1="218.49" x2="147.18" y2="174.01"/>
	<line fill="none" stroke="#000000" stroke-width="0.25" stroke-miterlimit="10" x1="100.24" y1="221.44" x2="148.19" y2="181.73"/>
	<line fill="none" stroke="#000000" stroke-width="0.25" stroke-miterlimit="10" x1="107.01" y1="224.39" x2="149.43" y2="189.25"/>
	<line fill="none" stroke="#000000" stroke-width="0.25" stroke-miterlimit="10" x1="113.64" y1="227.64" x2="151.08" y2="196.64"/>
	<line fill="none" stroke="#000000" stroke-width="0.25" stroke-miterlimit="10" x1="120.28" y1="230.89" x2="152.28" y2="204.39"/>
	<line fill="none" stroke="#000000" stroke-width="0.25" stroke-miterlimit="10" x1="127.21" y1="233.44" x2="153.2" y2="211.92"/>
	<line fill="none" stroke="#000000" stroke-width="0.25" stroke-miterlimit="10" x1="133.98" y1="236.39" x2="155.76" y2="218.35"/>
	<line fill="none" stroke="#000000" stroke-width="0.25" stroke-miterlimit="10" x1="140.74" y1="239.34" x2="155.7" y2="226.95"/>
	<line fill="none" stroke="#000000" stroke-width="0.25" stroke-miterlimit="10" x1="147.46" y1="242.39" x2="156.38" y2="235"/>
</g>
</svg>
